<?xml version="1.0" encoding="UTF-8" standalone="no"?>
<!DOCTYPE svg PUBLIC "-//W3C//DTD SVG 1.1//EN" "http://www.w3.org/Graphics/SVG/1.1/DTD/svg11.dtd">
<svg width="100%" height="100%" viewBox="0 0 40 40" version="1.1" xmlns="http://www.w3.org/2000/svg" xmlns:xlink="http://www.w3.org/1999/xlink" xml:space="preserve" xmlns:serif="http://www.serif.com/" style="fill-rule:evenodd;clip-rule:evenodd;stroke-linejoin:round;stroke-miterlimit:2;">
    <g transform="matrix(0.0450092,0,0,0.0450092,-5.87276,-7.17208)">
        <g id="Calendar">
            <path d="M996.291,410.113L996.291,800.704C996.291,908.491 908.782,996 800.995,996L352.466,996C244.679,996 157.171,908.491 157.171,800.704L157.171,410.113C157.171,302.327 244.679,214.818 352.466,214.818L800.995,214.818C908.782,214.818 996.291,302.327 996.291,410.113ZM844.225,925.789C892.393,920.864 931.015,883.491 937.853,835.911L937.853,807.654L719.943,807.654L719.943,925.789L844.225,925.789ZM220.228,835.091C226.737,883.062 265.526,920.836 313.971,925.789L438.137,925.789L438.137,807.654L220.228,807.654L220.228,835.091ZM687.199,807.654L469.29,807.654L469.29,925.789L687.199,925.789L687.199,807.654ZM438.137,504.367L220.228,504.367L220.228,622.502L438.137,622.502L438.137,504.367ZM687.199,504.367L469.29,504.367L469.29,622.502L687.199,622.502L687.199,504.367ZM937.853,504.367L719.943,504.367L719.943,622.502L937.853,622.502L937.853,504.367ZM438.137,656.273L220.228,656.273L220.228,774.409L438.137,774.409L438.137,656.273ZM687.199,656.273L469.29,656.273L469.29,774.409L687.199,774.409L687.199,656.273ZM937.853,656.273L719.943,656.273L719.943,774.409L937.853,774.409L937.853,656.273ZM846.034,297.919C808.091,297.919 777.287,328.723 777.287,366.665C777.287,404.608 808.091,435.412 846.034,435.412C883.976,435.412 914.781,404.608 914.781,366.665C914.781,328.723 883.976,297.919 846.034,297.919Z" style="fill:rgb(2,2,2);"/>
        </g>
    </g>
</svg>
